<svg viewBox="0 0 30.882852016466387 29.277661000000002">
  <path style="display:inline;fill:#000000" d="M 7.5614968,29.07576 C 7.2504241,28.962717 6.50646,28.672671 5.9082433,28.431212 4.2641883,27.767622 3.4411161,27.532091 2.4329826,27.436729 1.9333807,27.38947 1.4169405,27.295122 1.2853378,27.227068 0.50609405,26.824105 0.65551635,25.821943 1.5189944,25.659954 c 0.3904702,-0.07325 0.8208869,0.07872 1.6509116,0.582908 0.7655769,0.46504 1.1720971,0.548308 1.1720971,0.240083 0,-0.265625 -0.9971553,-1.208953 -1.7309519,-1.637513 C 2.2725385,24.64773 1.955758,24.411578 1.9070948,24.32065 c -0.168572,-0.31498 -0.1028722,-0.697838 0.165868,-0.966578 0.5352736,-0.535274 1.2224877,-0.166664 1.4865082,0.797337 0.1344266,0.490823 0.725465,1.333144 1.177772,1.678506 0.4595315,0.350878 0.7359335,0.407226 0.7359335,0.150028 0,-0.259707 -0.6152652,-1.106703 -1.0194711,-1.40344 C 4.1799247,24.375514 4.071797,24.227018 4.0275716,23.991277 3.9128847,23.379943 4.4063313,22.961089 4.9674224,23.193501 c 0.2726993,0.112955 0.4462309,0.416324 0.8063727,1.409702 0.2408934,0.664455 1.2514611,1.801233 1.513435,1.702449 0.099324,-0.03745 -0.3458911,-1.21056 -0.9769608,-2.574218 -1.1094274,-2.397326 -1.2914261,-3.826605 -0.6130918,-4.814752 0.3532962,-0.514656 0.8365518,-0.73411 1.6032793,-0.728072 0.6901624,0.0054 1.0213888,0.126465 1.7937412,0.65544 0.1969116,0.134862 0.4005922,0.256761 0.4526235,0.270886 0.063451,0.01722 0.1101846,-0.392372 0.1419229,-1.24387 0.042485,-1.139831 0.1325075,-1.916861 0.2742762,-2.367426 0.046408,-0.147495 0.030783,-0.148739 -0.2731359,-0.02175 C 9.2354005,15.671782 8.4992609,15.654617 8.0874382,15.44452 7.562389,15.17666 7.2339324,14.626008 6.7221021,13.155558 6.3435856,12.068108 5.8195,11.097778 5.4223228,10.749051 5.0176919,10.393781 4.9152144,10.108469 5.0786926,9.7923373 5.4532613,9.0680013 6.2278271,9.459968 6.5226038,10.523024 6.7045281,11.1791 6.8616017,11.406386 7.0761763,11.324046 7.336087,11.224309 7.216044,10.415067 6.6859991,8.6937591 6.4731862,8.0026543 6.8222577,7.5512576 7.3882232,7.7856882 7.7232981,7.9244808 7.735908,7.9884229 7.765677,9.6996698 c 0.023807,1.3685442 0.071502,1.6532532 0.2769546,1.6532532 0.2604883,0 0.346892,-0.630063 0.2852688,-2.0802048 C 8.3020897,8.6653295 9.0851093,8.3439316 9.5232522,8.7820746 9.8153653,9.0741877 9.7932859,9.3031803 9.391537,10.148133 c -0.3452167,0.726056 -0.524149,1.495702 -0.5228503,2.248951 0.00108,0.628807 0.051327,0.642781 0.8265056,0.229874 0.8037767,-0.42814 0.9849297,-0.656585 1.4587897,-1.839621 0.172521,-0.430716 0.449091,-1.0901395 0.614599,-1.4653851 0.320331,-0.7262661 0.320142,-0.6935137 0.0089,-1.5365756 -0.171633,-0.4649191 -0.130257,-1.4877636 0.07615,-1.882403 0.07175,-0.1371832 0.351948,-0.4617054 0.622663,-0.7211604 0.487577,-0.4672971 0.744328,-0.8808089 1.045559,-1.6839269 0.205889,-0.548927 0.699918,-1.0969447 1.274326,-1.4135863 0.383646,-0.2114846 0.565937,-0.2564954 1.031579,-0.2547151 1.102101,0.00421 1.884187,0.6471797 2.466396,2.027665 0.258484,0.6128955 0.442968,0.9034476 0.811233,1.2776438 0.262166,0.2663879 0.534283,0.6222406 0.604705,0.7907838 0.215204,0.5150563 0.234408,1.3056002 0.0494,2.0337257 -0.189632,0.7463341 -0.26418,0.4469468 0.660827,2.6539071 0.584681,1.394981 0.834744,1.709459 1.683067,2.116615 0.627886,0.301356 0.6824,0.274807 0.683447,-0.332841 0.0013,-0.733648 -0.18168,-1.51767 -0.525177,-2.250672 C 21.86202,9.293611 21.84112,9.0732229 22.132268,8.7820746 c 0.276614,-0.2766147 0.658972,-0.278005 0.978003,-0.00356 0.217676,0.1872574 0.240275,0.2556357 0.208496,0.6308467 -0.09201,1.0862977 0.03772,1.9435577 0.294121,1.9435577 0.207399,0 0.254578,-0.288689 0.277293,-1.6967596 0.01235,-0.7657175 0.04319,-1.4753578 0.06854,-1.5769786 0.06823,-0.2736011 0.518434,-0.438025 0.794621,-0.2902141 0.383607,0.2053 0.383195,0.391131 -0.0037,1.6496593 -0.12504,0.4067874 -0.250981,0.983427 -0.27987,1.281422 -0.04481,0.462175 -0.03053,0.550249 0.09714,0.599238 0.22183,0.08512 0.360777,-0.112153 0.562401,-0.798493 0.213444,-0.7265755 0.483472,-1.029959 0.91672,-1.029959 0.408981,0 0.571339,0.1630881 0.571339,0.573906 0,0.291552 -0.0534,0.391706 -0.351591,0.659396 -0.445016,0.399499 -0.931315,1.286374 -1.346731,2.456064 -0.536604,1.510921 -0.826449,1.996707 -1.351006,2.264316 -0.396367,0.202211 -1.095361,0.222361 -1.590324,0.04584 -0.29207,-0.10416 -0.326385,-0.102663 -0.282264,0.01231 0.125563,0.327212 0.233781,1.404243 0.249515,2.483269 l 0.01719,1.178711 0.248699,-0.127888 c 0.136785,-0.07034 0.460069,-0.2631 0.718409,-0.428358 1.175382,-0.751883 2.559388,-0.529636 3.120754,0.501138 0.281695,0.517244 0.362392,1.270203 0.219219,2.045456 -0.134939,0.730667 -0.35072,1.319362 -0.999867,2.72784 -0.697991,1.514455 -1.031804,2.436374 -0.882176,2.436374 0.181518,0 0.879312,-0.651926 1.17401,-1.096839 0.145679,-0.219934 0.330812,-0.601514 0.411407,-0.847955 0.347558,-1.062753 0.711752,-1.412232 1.242565,-1.192362 0.594983,0.24645 0.575466,0.968276 -0.03754,1.388312 -0.33985,0.232869 -0.995337,1.1619 -0.995337,1.410706 0,0.45738 0.91298,-0.139797 1.455276,-0.951892 0.188441,-0.282193 0.392543,-0.691387 0.453561,-0.90932 0.06102,-0.217934 0.219219,-0.525942 0.351558,-0.684463 0.20289,-0.243029 0.298389,-0.288219 0.609093,-0.288219 0.452847,0 0.785073,0.323585 0.785073,0.764656 0,0.398586 -0.188282,0.618734 -0.807044,0.943633 -0.636578,0.334254 -1.716343,1.358924 -1.716343,1.628768 0,0.307699 0.408564,0.222656 1.172097,-0.243972 0.842083,-0.514635 1.339612,-0.668588 1.725702,-0.533997 0.829916,0.289311 0.907021,1.133907 0.139738,1.530685 -0.142124,0.07349 -0.661182,0.169014 -1.153463,0.212265 -1.005302,0.08832 -1.944371,0.360358 -3.631804,1.052079 -1.508551,0.618392 -1.956928,0.776368 -2.203539,0.776368 -0.496389,0 -0.917208,-0.316891 -1.148126,-0.864578 -0.258607,-0.61336 -0.33107,-2.25516 -0.159088,-3.604479 l 0.04282,-0.335924 -0.546401,0.499835 c -1.03021,0.942415 -2.480585,1.749628 -3.854487,2.145234 -0.996814,0.287026 -2.741601,0.287026 -3.738415,0 -1.385666,-0.398993 -2.854577,-1.217264 -3.865025,-2.153047 l -0.5569377,-0.515785 0.059106,0.394151 c 0.093701,0.624844 0.07359,2.607864 -0.031343,3.090393 -0.2532876,1.16474 -0.9101596,1.539372 -2.0028614,1.142288 z" id="path1" />
</svg>
