<svg xmlns:svg="http://www.w3.org/2000/svg" xmlns="http://www.w3.org/2000/svg" version="1.2" width="550" height="550" viewBox="0 0 550 550" id="Layer_1" xml:space="preserve">
  <path d="m 526.05,141.45 c 8.066,13.2 17.634,24.15 28.7,32.85 -9.134,-5.3 -17.05,-11.617 -23.75,-18.95 -4.167,-4.533 -9.116,-11.1 -14.85,-19.7 -5.767,-8.667 -10.301,-14.833 -13.601,-18.5 -1.066,-1.167 -2.166,-2.3 -3.3,-3.4 -6.3,-5.4 -13.267,-9.967 -20.9,-13.7 -8.699,-4.3 -17.616,-8.05 -26.75,-11.25 -9.3,-3.2 -18.683,-5.733 -28.149,-7.6 -9.367,-1.9 -18.884,-2.917 -28.55,-3.05 -9.767,-0.133 -19.384,1.067 -28.851,3.6 -9.533,2.5 -18.383,6.5 -26.55,12 -8.167,5.533 -15.3,12.2 -21.4,20 -4.5,7.533 -7.017,15.933 -7.55,25.2 14.267,-0.2 24.7,0.083 31.3,0.85 6.367,0.767 10.967,2.2 13.801,4.3 1.899,1.4 3.983,4.2 6.25,8.4 2.933,5.433 5.833,9.883 8.699,13.35 1,0.933 1.884,1.967 2.65,3.1 0.033,0.033 0.05,0.1 0.05,0.2 1.62,0.66 2.971,1.56 4.05,2.7 0.12,0.133 0.237,0.267 0.351,0.4 0.022,0.023 0.906,0.448 2.649,1.275 0.947,0.449 2.147,1.015 3.601,1.7 4.127,1.941 6.552,3.733 7.274,5.375 0.726,1.645 0.851,2.195 0.375,1.65 -2.366,-1.167 -5.183,-2.217 -8.449,-3.15 v 0.1 c 0.933,0.733 1.816,1.5 2.649,2.3 l 1.05,1.05 c 0.816,0.883 1.566,1.716 2.25,2.5 0.887,0.996 1.671,1.913 2.351,2.75 0.888,1.104 1.604,2.07 2.149,2.9 0.71,1.092 1.127,1.95 1.25,2.575 0.349,1.758 0.198,2.3 -0.449,1.625 -0.266,-0.199 -0.532,-0.399 -0.801,-0.6 -1.614,-1.201 -3.281,-2.418 -5,-3.65 -0.046,-0.033 -0.096,-0.066 -0.149,-0.1 -0.525,-0.382 -1.059,-0.766 -1.601,-1.15 -0.594,-0.567 -1.202,-1.1 -1.824,-1.6 -1.35,-1.07 -2.775,-1.986 -4.275,-2.75 -0.132,-0.068 -0.266,-0.134 -0.4,-0.2 -0.968,-0.478 -1.968,-0.895 -3,-1.25 -1.019,-0.343 -2.068,-0.626 -3.149,-0.85 -0.634,-0.133 -1.25,-0.25 -1.851,-0.35 -0.3,-0.033 -0.6,-0.05 -0.899,-0.05 v 0.15 c 0.3,0.6 0.6,1.2 0.899,1.8 l 4.7,7.25 c 0.105,0.445 0.205,0.878 0.3,1.3 1.614,7.054 1.798,10.071 0.551,9.05 h -0.15 c -0.137,-0.114 -0.27,-0.23 -0.4,-0.351 -1.554,-1.434 -2.653,-3.351 -3.3,-5.75 -0.033,-0.066 -0.05,-0.133 -0.05,-0.2 -1.675,-1.607 -3.283,-3.291 -4.825,-5.05 -0.784,-0.896 -1.551,-1.813 -2.3,-2.75 -0.707,-0.882 -1.398,-1.782 -2.075,-2.7 -0.031,-0.031 -0.081,-0.048 -0.149,-0.05 -0.266,0.893 -0.424,1.81 -0.476,2.75 -0.038,0.896 0.021,1.812 0.175,2.75 0.07,0.38 0.153,0.764 0.25,1.15 0.191,3.815 -0.167,7.332 -1.074,10.55 -0.928,3.27 -1.569,3.319 -1.926,0.15 h -0.1 c -0.066,-0.601 -0.134,-1.2 -0.2,-1.801 -0.1,-0.466 -0.184,-0.933 -0.25,-1.399 -0.482,-3.096 -1.165,-5.979 -2.05,-8.65 -0.085,-0.252 -0.168,-0.502 -0.25,-0.75 -0.211,-0.577 -0.428,-1.144 -0.65,-1.7 -0.066,0 -0.116,0.017 -0.149,0.05 -0.209,0.581 -0.434,1.131 -0.675,1.65 -0.122,0.258 -0.247,0.508 -0.375,0.75 -0.556,1.063 -1.189,1.98 -1.9,2.75 -0.066,0.067 -0.134,0.15 -0.2,0.25 -0.355,0.366 -0.73,0.7 -1.125,1 -0.854,0.657 -1.796,1.157 -2.825,1.5 0,-0.066 0,-0.133 0,-0.2 0,-0.427 0,-0.86 0,-1.3 0,-0.281 0,-0.564 0,-0.85 0,-0.067 0,-0.133 0,-0.2 0.144,-1.023 0.285,-2.007 0.426,-2.95 0.034,-0.252 0.067,-0.502 0.1,-0.75 0.095,-0.689 0.187,-1.355 0.275,-2 0.121,-0.875 0.238,-1.708 0.35,-2.5 0,-0.066 -0.017,-0.133 -0.05,-0.2 -0.011,-0.017 -0.02,-0.033 -0.025,-0.05 -0.883,-1.378 -1.633,-2.878 -2.25,-4.5 -0.168,-0.441 -0.326,-0.891 -0.475,-1.35 0,-0.067 -0.017,-0.117 -0.05,-0.15 -2.4,-1.433 -4.584,-3.083 -6.551,-4.95 l -7.199,-9.65 c -3.634,1.033 -8.334,2.117 -14.101,3.25 -4.366,0.867 -7.333,1.65 -8.899,2.35 -2.233,1.034 -3.851,2.7 -4.851,5 -1,2.333 -1.666,6.05 -2,11.15 -0.333,5.3 -3.25,13.466 -8.75,24.5 -4.666,9.333 -9.184,17.033 -13.55,23.1 -8.833,12.334 -23.1,23.217 -42.8,32.65 -17.633,8.434 -34.917,13.7 -51.85,15.8 l -2.85,0.2 c 1.538,5.783 1.038,11.566 -1.5,17.35 -1.1,3.367 -2.617,6.483 -4.55,9.351 0,0.066 -0.017,0.133 -0.05,0.199 -1.467,5.801 -3.566,10.967 -6.3,15.5 v 0.101 c -1.2,-1.834 -1.9,-4.217 -2.1,-7.15 -0.067,0 -0.133,0.017 -0.2,0.05 -1.633,0.767 -2.966,1.851 -4,3.25 0,0.067 -0.017,0.134 -0.05,0.2 -0.633,2.066 -1.483,3.834 -2.55,5.3 -0.1,0.101 -0.184,0.2 -0.25,0.301 -1.1,1.333 -2.4,2.366 -3.9,3.1 -0.566,0.3 -0.883,-0.283 -0.95,-1.75 -0.1,-1.467 1.367,-5.733 4.4,-12.8 -0.067,0 -0.117,0.033 -0.15,0.1 -3.733,4.767 -8.6,8.017 -14.6,9.75 -0.133,0.101 -0.167,-0.267 -0.1,-1.1 0.067,-0.867 3.3,-4.867 9.7,-12 -0.067,0 -0.133,0.017 -0.2,0.05 -5.667,2.934 -10.9,4.4 -15.7,4.4 -0.467,-0.667 -0.317,-1.334 0.45,-2 0.733,-0.7 1.717,-1.351 2.95,-1.95 1.233,-0.601 2.583,-1.5 4.05,-2.7 0.033,-0.033 0.05,-0.083 0.05,-0.15 -2.1,0.4 -4.284,0.434 -6.55,0.101 v -0.101 c 1.033,-2.133 3.567,-3.983 7.6,-5.55 4.033,-1.6 6.117,-2.583 6.25,-2.95 0.133,-0.399 0.267,-0.916 0.4,-1.55 l 1.9,-6.7 c 0,0.5 0,1.017 0,1.551 l 0.1,-1.851 0.5,-1.8 c -0.167,0 -0.316,0 -0.45,0 -0.633,-0.033 -1.083,-0.1 -1.35,-0.2 -0.802,-0.333 -8.144,-1.925 -22.025,-4.774 -13.879,-2.85 -22.371,-5.392 -25.475,-7.625 -6.7,0.166 -14.067,-1 -22.1,-3.5 -6.533,-2.034 -11.4,-3.817 -14.6,-5.351 -1,-0.467 -12.9,-4.816 -35.7,-13.05 -13.9,-4.333 -23.35,-7.634 -28.35,-9.9 -6.5,-2.933 -9.75,-5.8 -9.75,-8.6 0,-5.667 11.383,-11.634 34.15,-17.9 6.048,-1.669 12.298,-3.186 18.75,-4.55 5.033,-1.066 10.083,-2 15.15,-2.8 9.733,-1.566 19.45,-1.517 29.15,0.15 h 1.6 c 2.4,1.166 6.033,2.033 10.9,2.6 3.934,0.467 8.25,0.7 12.95,0.7 0.7,0 2.433,-0.134 5.2,-0.4 3.233,-0.333 5.8,-0.666 7.7,-1 2.056,-5.747 4.04,-8.764 5.95,-9.05 1.908,-0.289 3.283,-0.423 4.125,-0.4 0.847,0.03 3.989,1.297 9.425,3.801 5.8,2.5 9.55,3.75 11.25,3.75 12.567,0 24.867,-3.9 36.9,-11.7 7.6,-4.934 13.15,-9.684 16.65,-14.25 -1.534,-0.333 -3.333,-1.034 -5.4,-2.1 -2.1,-1.067 -2.966,-3.067 -2.6,-6 0.333,-2.934 3.833,-7.25 10.5,-12.95 1.1,-0.933 4.966,-4.05 11.6,-9.35 5.767,-4.6 10.833,-8.85 15.2,-12.75 1.767,-1.566 3.75,-3.25 5.95,-5.05 1.7,-1.467 3.433,-3.35 5.2,-5.65 2.2,-2.9 6.5,-9.35 12.9,-19.35 4.733,-7.633 9.867,-15.033 15.4,-22.2 5.399,-7 11.55,-13.3 18.45,-18.9 3.166,-2.533 6.399,-4.867 9.699,-7 9.2,-4.433 18.65,-7.167 28.351,-8.2 9.333,-0.633 18.633,-1.133 27.899,-1.5 8.034,-0.3 16.084,-0.067 24.15,0.7 3.667,0.4 7.217,0.917 10.65,1.55 1.166,0.233 2.333,0.483 3.5,0.75 8.833,1.966 17.566,4.316 26.199,7.05 9.233,3 18.167,6.667 26.801,11 8.333,4.233 16.149,9.267 23.449,15.1 7.134,5.667 13.584,12.033 19.351,19.1 0.7,0.833 1.916,2.783 3.649,5.85 1.7,3.031 6.6,11.165 14.7,24.398 z m -161.425,50.275 c 0.006,0.043 0.015,0.084 0.025,0.125 0,0.066 0,0.15 0,0.25 l -0.025,-0.375 z" id="path3" style="fill-rule:evenodd" />    
</svg>
