<svg viewBox="0 0 24.38733146672021 31.754678620155097">
  <path style="fill:#000000" d="m 23.849414,29.796618 c -0.307795,0.618914 -0.866762,1.173569 -1.429591,1.41856 -1.321437,0.575201 -2.300379,0.67684 -3.561212,0.369744 -0.913719,-0.222551 -2.011451,-0.937823 -2.637876,-1.718815 -0.641968,-0.800371 -1.124844,-1.752144 -1.33816,-2.63758 -0.04937,-0.204935 -0.09979,-0.582308 -0.112051,-0.838606 -0.01905,-0.39835 -0.06559,-1.143873 -0.133998,-2.146516 -0.0093,-0.136022 -0.03417,-0.611479 -0.05532,-1.05657 -0.0525,-1.105183 -0.09375,-1.422319 -0.222948,-1.713956 l -0.110627,-0.249721 -0.583495,-0.03765 c -0.957653,-0.06179 -1.348971,-0.11399 -1.733297,-0.231227 -0.200555,-0.06118 -0.412519,-0.112315 -0.471032,-0.113636 -0.126263,-0.0029 -0.134909,0.05984 -0.05596,0.405723 0.132869,0.582088 0.200673,0.801764 0.254039,0.823041 0.03151,0.01256 0.173264,-0.02702 0.315013,-0.08795 0.495891,-0.213181 0.953131,0.03146 1.003966,0.537155 0.02032,0.202115 -0.186107,0.634552 -0.33859,0.709312 -0.150408,0.07374 -0.521869,0.03461 -0.829982,-0.08743 -0.340955,-0.135052 -0.447503,-0.141695 -0.526116,-0.0328 -0.08453,0.117088 0.03399,0.426935 0.246342,0.644036 0.174362,0.178258 0.232307,0.333458 0.220882,0.591613 -0.0071,0.160353 -0.02689,0.210546 -0.130098,0.329874 -0.163093,0.18857 -0.284113,0.241421 -0.496082,0.216645 -0.231664,-0.02708 -0.430573,-0.156658 -0.532517,-0.346912 -0.09019,-0.168319 -0.135332,-0.491437 -0.08596,-0.615276 0.05821,-0.145998 -0.04028,-0.361286 -0.193178,-0.422246 -0.07692,-0.03067 -0.156247,-0.0436 -0.176291,-0.02875 -0.02005,0.01486 -0.05107,0.159471 -0.06894,0.321364 -0.02543,0.230414 -0.0547,0.322812 -0.1347349,0.425376 -0.1616697,0.207177 -0.3266566,0.29949 -0.485222,0.27149 -0.1340363,-0.02367 -0.1814649,-0.04012 -0.350991,-0.121755 -0.035496,-0.01709 -0.095606,-0.110713 -0.1335784,-0.208044 -0.059788,-0.15325 -0.05615,-0.209296 0.02714,-0.418198 0.08934,-0.224076 0.1130395,-0.249188 0.3332552,-0.353112 0.243405,-0.114867 0.3513873,-0.261167 0.2930039,-0.396976 -0.053572,-0.124616 -0.1205192,-0.110054 -0.3096742,0.06736 -0.1089654,0.102202 -0.2501062,0.185316 -0.3408721,0.200732 -0.2974658,0.05052 -0.6266262,-0.177048 -0.6712311,-0.464066 -0.065244,-0.419824 0.3376392,-0.684122 0.9184596,-0.602525 0.2017379,0.02834 0.3148325,-0.0315 0.2675197,-0.14156 -0.019215,-0.0447 -0.1051158,-0.05663 -0.3008711,-0.0418 -0.1506876,0.01142 -0.3175789,0.0061 -0.3708695,-0.01181 -0.2835985,-0.09532 -0.371355,-0.164178 -0.4538709,-0.356122 -0.071183,-0.165582 -0.072952,-0.227351 -0.010966,-0.38282 0.1346296,-0.337667 0.4940701,-0.415951 0.8788545,-0.191409 0.092771,0.05414 0.1713866,0.09163 0.1747021,0.08331 0.00332,-0.0083 -0.0998,-0.170572 -0.229146,-0.360569 C 8.733168,20.15791 8.6163646,19.928884 8.5955246,19.674508 8.5773137,19.452224 8.5862066,19.417888 8.7026969,19.260708 8.930074,18.953907 9.149856,18.791127 9.5957,18.599312 c 0.836665,-0.359958 1.833692,-0.473847 2.904435,-0.331769 0.761281,0.101014 0.770761,0.100072 0.753165,-0.07485 -0.01692,-0.168178 -0.101026,-0.302382 -0.787205,-1.256081 -0.931114,-1.294124 -1.157586,-1.786852 -1.219055,-2.652257 -0.02149,-0.302592 -0.01507,-0.702992 0.01426,-0.889778 0.07778,-0.495239 0.406712,-1.382253 0.707286,-1.907326 0.135677,-0.237013 0.311792,-0.559371 0.391367,-0.716351 0.134954,-0.266225 0.140109,-0.292394 0.07666,-0.389157 -0.08308,-0.126702 -0.247041,-0.158742 -0.44218,-0.08641 -0.292855,0.108555 -0.414866,0.09248 -0.857702,-0.112996 L 10.723319,9.9905149 10.469296,10.07107 c -0.312855,0.09921 -0.35885,0.146086 -0.298972,0.304687 0.12775,0.338376 0.04769,0.694502 -0.1990287,0.885336 C 9.7967568,11.396095 9.5582118,11.416387 9.3098389,11.31736 8.940704,11.170184 8.8718593,10.765449 9.1130578,10.160493 9.2344616,9.8559979 9.2351999,9.8445921 9.1405738,9.7354229 8.9562385,9.522757 8.8367782,9.5152561 8.5514695,9.6984334 8.2166335,9.9134086 8.0830885,9.9501046 7.8417359,9.8934562 7.53434,9.8213067 7.380893,9.6353946 7.3558408,9.3047596 L 7.3357978,9.0402337 7.4978387,8.8995627 c 0.3226653,-0.2801125 0.579762,-0.3350014 0.9247882,-0.197438 0.2086895,0.083206 0.492646,0.08585 0.5670733,0.00528 C 9.0679063,8.6227471 9.0312911,8.421891 8.9250242,8.3526201 8.8701616,8.3168575 8.7184984,8.2488963 8.5879949,8.2015952 8.1608794,8.0467868 7.9908339,7.6361276 8.2103856,7.2896704 8.272055,7.1923547 8.3551804,7.1412576 8.5194562,7.0996847 8.718357,7.0493493 8.7643693,7.0545345 8.9200246,7.1448255 9.1103297,7.2552159 9.2841674,7.4989146 9.2739158,7.6409368 9.2650719,7.7634591 9.4586854,7.9514615 9.5352594,7.8947063 9.6237636,7.8291087 9.6023552,7.7320799 9.4647331,7.5750617 9.2935633,7.3797677 9.2511945,6.9835728 9.377488,6.7592252 9.5318026,6.4851012 9.929333,6.3924344 10.155511,6.5778633 c 0.106289,0.08714 0.263334,0.4045938 0.278883,0.5637414 0.007,0.071639 -0.02467,0.2638804 -0.07038,0.4272026 l -0.0831,0.2969496 0.156277,0.034703 c 0.08595,0.019087 0.183501,0.023 0.216773,0.0087 0.03327,-0.014304 0.104881,-0.1504962 0.159129,-0.3026497 0.07939,-0.2226672 0.127713,-0.2981965 0.247679,-0.3871132 0.29295,-0.2171284 0.629124,-0.1901391 0.792734,0.063644 0.229554,0.3560701 0.08166,0.7438584 -0.367936,0.9647633 -0.231019,0.1135085 -0.261788,0.1521391 -0.180782,0.2269712 0.18226,0.1683669 0.462288,0.1777514 1.145696,0.038396 0.294129,-0.059977 0.546664,-0.10431 0.561189,-0.098519 0.01453,0.00579 0.224251,-0.029219 0.466056,-0.077801 0.407787,-0.08193 0.68042,-0.2114828 0.735988,-0.3497345 0.07428,-0.1848238 -0.214241,-0.6330559 -0.587101,-0.9120725 -0.185198,-0.1385865 -0.38263,-0.5614263 -0.434188,-0.9298971 -0.04358,-0.3114421 0.01482,-1.0318047 0.118402,-1.4605812 0.102781,-0.4254525 0.64511,-1.6654641 0.915255,-2.0926907 0.406451,-0.6427898 1.032095,-1.322027 1.546894,-1.67940431 0.396355,-0.27515198 0.81505,-0.31037736 1.315854,-0.11070457 0.592083,0.23606598 1.083405,1.12378608 1.519361,2.74518018 0.175369,0.6522242 0.201572,0.79118 0.261021,1.3841785 0.08858,0.8835792 -0.02743,1.9530695 -0.241915,2.2301784 -0.048,0.062017 -0.104494,0.1559433 -0.125538,0.2087245 -0.07813,0.195962 -0.369717,0.4113456 -0.791397,0.5845758 -0.543195,0.2231493 -0.571544,0.2789874 -0.36906,0.7269397 0.179267,0.3965914 0.547426,1.0789358 0.712503,1.3205512 0.06685,0.09784 0.20612,0.264451 0.309494,0.370244 0.103374,0.105793 0.396722,0.407867 0.651886,0.671276 0.370294,0.382261 0.506258,0.4958 0.673632,0.562533 0.18331,0.07309 0.229685,0.0729 0.368521,-0.0015 0.192901,-0.103363 0.192568,-0.171483 -8.81e-4,-0.179993 -0.202324,-0.0089 -0.46768,-0.162341 -0.572069,-0.330796 -0.177967,-0.287188 -0.02173,-0.772255 0.258515,-0.802606 0.123247,-0.01335 0.390389,0.09879 0.76254,0.320098 0.147695,0.08783 0.160729,0.08687 0.257155,-0.019 0.08841,-0.09706 0.09531,-0.1261 0.05322,-0.223997 -0.02659,-0.06186 -0.06793,-0.120283 -0.09185,-0.129822 -0.02392,-0.0095 -0.0696,-0.08504 -0.101511,-0.167792 -0.115531,-0.2996233 0.189243,-0.7554181 0.515636,-0.7711419 0.394936,-0.019026 0.639634,0.4008885 0.511848,0.8783579 -0.05236,0.195658 -0.04714,0.222842 0.05786,0.300883 0.145616,0.10823 0.187986,0.08062 0.298686,-0.194664 0.104662,-0.260267 0.191926,-0.3066721 0.458864,-0.244018 0.242156,0.05684 0.37058,0.145928 0.438671,0.304318 0.04406,0.102484 0.03433,0.157788 -0.06305,0.358573 l -0.115145,0.2374 0.126975,0.05128 c 0.299524,0.120971 0.384645,0.31014 0.269504,0.598928 -0.09519,0.238739 -0.33351,0.332009 -0.678017,0.265349 -0.13694,-0.0265 -0.297489,0.02285 -0.33319,0.102418 -0.0076,0.01684 0.06192,0.06078 0.154396,0.09765 0.193564,0.07717 0.355762,0.245707 0.371548,0.386057 0.006,0.05331 -0.0294,0.198007 -0.07866,0.321559 -0.117595,0.294942 -0.215564,0.333669 -0.528479,0.208909 -0.20192,-0.08051 -0.24974,-0.121783 -0.365918,-0.315845 l -0.133643,-0.223235 -0.152116,0.03713 c -0.08366,0.02042 -0.188503,0.02262 -0.232975,0.0049 -0.05948,-0.02372 -0.145296,0.02895 -0.32461,0.199204 -0.134063,0.127294 -0.248311,0.242878 -0.253883,0.256855 -0.0056,0.01398 -0.150486,0.155116 -0.322029,0.313642 -0.25236,0.233211 -0.35695,0.298459 -0.54792,0.341815 l -0.236022,0.05358 -0.457468,-0.384702 c -0.418392,-0.351842 -1.409074,-1.009774 -1.500735,-0.996669 -0.05166,0.0074 -0.03156,0.176694 0.05367,0.45207 0.104239,0.33681 0.07851,0.810933 -0.06865,1.265078 -0.104579,0.322745 -0.173137,0.454902 -0.432711,0.834122 -0.169644,0.247838 -0.321222,0.460087 -0.336842,0.471664 -0.01562,0.01158 -0.139901,0.186594 -0.276181,0.388927 -0.26735,0.396929 -0.303349,0.525092 -0.245825,0.875166 0.02592,0.157756 0.214793,0.489293 0.297534,0.522283 0.02331,0.0093 0.100668,-0.05189 0.171912,-0.135955 0.07124,-0.08407 0.355067,-0.348986 0.630715,-0.588707 0.651832,-0.566873 1.083415,-0.775729 1.502182,-0.72695 0.518304,0.06037 0.780965,0.289052 1.341514,1.167954 0.29115,0.456502 0.382113,0.511369 0.817157,0.492893 0.158158,-0.0067 0.289357,-0.01672 0.291554,-0.02223 0.0022,-0.0055 0.0027,-0.08826 0.0011,-0.183895 -0.0038,-0.230621 0.05942,-0.373747 0.242845,-0.54996 0.109204,-0.10491 0.199305,-0.146578 0.32128,-0.148577 0.326803,-0.0054 0.626803,0.194099 0.650186,0.43228 0.01788,0.182111 -0.119925,0.525338 -0.315428,0.785633 l -0.152962,0.203657 0.07982,0.164148 c 0.10351,0.212858 0.159336,0.230435 0.413026,0.130047 0.280261,-0.110902 0.520992,-0.123151 0.646377,-0.03289 0.421074,0.303116 0.437596,0.873766 0.0309,1.067093 -0.202084,0.09606 -0.343852,0.08933 -0.747022,-0.03546 -0.312196,-0.09663 -0.347107,-0.09829 -0.392785,-0.01861 -0.04151,0.07241 -0.01854,0.119704 0.133533,0.274968 0.531604,0.542756 0.272986,1.261573 -0.384908,1.06983 -0.209354,-0.06102 -0.223276,-0.07388 -0.310949,-0.287291 -0.05048,-0.122878 -0.107365,-0.332343 -0.12641,-0.465477 -0.01904,-0.133133 -0.05177,-0.248896 -0.07272,-0.257251 -0.09302,-0.03709 -0.126436,0.103541 -0.07395,0.311223 0.142421,0.563586 -0.217742,0.919754 -0.725396,0.71735 -0.291875,-0.116372 -0.328321,-0.312086 -0.153828,-0.826072 0.118807,-0.349959 0.128225,-0.41247 0.06794,-0.450918 -0.102164,-0.06516 -0.280231,0.0179 -0.335487,0.156492 -0.147293,0.36943 -0.648816,0.439722 -0.918389,0.128718 -0.122624,-0.141469 -0.135252,-0.261775 -0.04994,-0.475751 0.09566,-0.239915 0.241218,-0.348686 0.545391,-0.40754 0.381591,-0.07383 0.381598,-0.141541 3.9e-5,-0.433323 -0.377119,-0.288388 -0.538974,-0.360421 -0.724888,-0.322608 -0.117496,0.0239 -0.14953,0.05768 -0.21833,0.230237 -0.288557,0.723736 -0.734199,1.357766 -1.313787,1.869167 l -0.230981,0.203808 -0.0038,0.496511 c -0.0081,1.061123 -0.07468,1.978409 -0.223384,3.07946 -0.04239,0.313902 -0.09211,0.683826 -0.11049,0.822053 -0.01838,0.138228 -0.04878,0.569984 -0.06758,0.959457 -0.08349,1.730504 0.14501,2.862506 0.729786,3.615388 0.438951,0.565137 0.546987,0.640026 1.445061,1.001698 0.916164,0.368957 1.192586,0.423924 1.928421,0.383471 0.772896,-0.04249 1.401619,-0.359475 1.952855,-0.984573 0.2661,-0.301755 0.307838,-0.371816 0.481358,-0.807998 0.104497,-0.262677 0.20886,-0.572349 0.231919,-0.68816 0.07302,-0.366734 0.293267,-0.49784 0.618497,-0.368169 0.180337,0.0719 0.29008,0.268525 0.269277,0.482457 -0.05715,0.587694 -0.186756,0.999309 -0.535426,1.700416 z" id="path1" />
</svg>
