<svg viewBox="0 0 31.917115747755766 31.06753277350578">
  <path style="fill:#000000;stroke-width:1.00771" d="m 12.547844,30.880926 c -0.22285,-0.222851 -0.243828,-0.532277 -0.05257,-0.775423 0.09955,-0.126565 0.147341,-0.330052 0.20673,-0.880342 0.04249,-0.393651 0.06801,-0.715727 0.05672,-0.715727 -0.07793,0 -0.766625,1.047777 -0.766625,1.166333 0,0.784329 -1.122053,0.873806 -1.22614,0.09778 -0.0311,-0.23189 -0.01353,-0.283149 0.154765,-0.451444 0.104417,-0.104418 0.230651,-0.189851 0.280518,-0.189851 0.0735,0 0.622105,-0.661149 0.813369,-0.980222 0.05556,-0.09268 0.01421,-0.07862 -0.702457,0.238746 -0.318912,0.141228 -0.553339,0.286527 -0.598531,0.370969 -0.08356,0.156143 -0.315391,0.302697 -0.484072,0.306018 -0.21038,0.0041 -0.4888405,-0.191564 -0.5787547,-0.40676 -0.077516,-0.185524 -0.077556,-0.24208 -2.958e-4,-0.42699 0.121073,-0.289768 0.3559865,-0.436516 0.6140115,-0.383564 0.16467,0.03379 0.382944,-0.03625 1.189256,-0.381621 0.849862,-0.364026 1.049607,-0.477432 1.432477,-0.813296 0.2447,-0.214658 0.444909,-0.41357 0.444909,-0.442028 0,-0.02846 -0.380687,-0.469896 -0.845971,-0.980973 l -0.84597,-0.929233 -0.897915,-0.144192 C 9.7065684,23.992944 7.8819671,23.582855 7.2289397,23.369685 4.4001446,22.446273 1.903096,20.442544 0.88645974,18.280231 0.30828116,17.050487 0.07431952,15.947926 0.07025104,14.43379 0.06650433,13.039402 0.24155553,11.928533 0.68596118,10.526511 0.84943761,10.010772 0.98497121,9.8443691 1.1556452,9.9498517 c 0.073854,0.04565 0.075651,0.1717233 0.011699,0.8208853 -0.1011584,1.026821 -0.094106,2.500645 0.015443,3.227341 0.4309933,2.858995 2.1973417,4.675999 5.1728276,5.321173 0.60553,0.131297 1.4101809,0.222281 1.929096,0.21813 l 0.4376051,-0.0035 0.4048305,-0.841801 c 0.2226561,-0.462991 0.411878,-0.860921 0.4204923,-0.884289 0.00862,-0.02337 -0.2856663,-0.118469 -0.6539569,-0.211333 -0.883015,-0.222656 -2.7140272,-0.315555 -2.9507983,-0.149715 -0.3825049,0.267917 -0.9263238,-0.05425 -0.9263238,-0.548754 0,-0.08679 0.081212,-0.248707 0.1804711,-0.359796 0.1468936,-0.164403 0.2270829,-0.201983 0.4309966,-0.201983 0.1467807,0 0.2981943,0.04314 0.3656377,0.104175 0.086677,0.07844 0.2956037,0.114966 0.8457763,0.147859 0.4018653,0.02402 0.7306642,0.02919 0.7306642,0.0115 0,-0.01771 -0.2489027,-0.189976 -0.5531173,-0.38283 C 6.60435,15.955327 6.405905,15.866271 6.2356372,15.866271 c -0.5122133,0 -0.7309304,-0.622292 -0.3519259,-1.001297 0.2512637,-0.251263 0.5679788,-0.251263 0.8192426,0 0.1001296,0.100127 0.1831189,0.219244 0.1844206,0.264698 0.00221,0.07693 0.9988781,0.744953 1.0472114,0.701894 0.012062,-0.01074 -0.1133575,-0.276131 -0.2787107,-0.589741 -0.201896,-0.38292 -0.3568024,-0.599245 -0.4716269,-0.658623 -0.5363044,-0.277334 -0.3146442,-1.145918 0.2924349,-1.145918 0.3289611,0 0.5916752,0.274153 0.5916752,0.617437 0,0.187719 0.1080208,0.470073 0.4170876,1.090215 l 0.4170876,0.836887 0.8752558,-0.01106 c 0.8632356,-0.01091 0.8798376,-0.0086 1.2087996,0.173678 0.641717,0.35544 1.009886,0.962389 1.002425,1.652562 -0.002,0.188402 -0.04032,0.580776 -0.08508,0.871942 -0.04475,0.291167 -0.07184,0.540489 -0.06018,0.55405 0.01166,0.01356 0.317678,-0.04931 0.680049,-0.139708 1.261718,-0.314759 2.437236,-0.861613 3.522178,-1.638527 0.658492,-0.471537 1.327782,-1.075403 1.2281,-1.10805 -0.0448,-0.01467 -0.459828,-0.127666 -0.922269,-0.251092 -0.886341,-0.236566 -1.553008,-0.510069 -1.796658,-0.737087 -0.271358,-0.252836 -0.401511,-0.600248 -0.440218,-1.175066 l -0.0364,-0.540597 -0.622816,-0.717977 c -0.492356,-0.567583 -0.671652,-0.732052 -0.855956,-0.785175 -0.243372,-0.07015 -0.420817,-0.306651 -0.420817,-0.560874 0,-0.331362 0.305163,-0.622816 0.652109,-0.622816 0.226524,0 0.531242,0.287762 0.531242,0.501682 0,0.135381 0.117461,0.310868 0.480363,0.717657 0.264201,0.296151 0.488877,0.512919 0.499282,0.481706 0.0104,-0.03121 -0.03361,-0.312826 -0.0978,-0.625806 -0.08576,-0.418087 -0.16202,-0.622894 -0.287477,-0.77199 -0.496017,-0.589483 0.393127,-1.3272544 0.906766,-0.752392 0.188699,0.21119 0.227258,0.432191 0.11274,0.646169 -0.05073,0.09478 -0.04004,0.273583 0.04257,0.712144 0.06067,0.322074 0.127221,0.585588 0.147909,0.585588 0.02069,0 0.127912,-0.275481 0.238275,-0.61218 0.140574,-0.428874 0.188854,-0.671202 0.161237,-0.809288 -0.09109,-0.45543 0.296099,-0.814734 0.744528,-0.690917 0.457922,0.126438 0.584254,0.686611 0.227414,1.008385 -0.154996,0.139765 -0.258753,0.372306 -0.543096,1.217182 -0.217498,0.64626 -0.334933,1.087568 -0.308051,1.157622 0.04095,0.106735 0.124474,0.110583 1.459653,0.06724 0.778916,-0.02528 1.610624,-0.06343 1.848241,-0.08476 l 0.43203,-0.03879 0.111977,-0.324449 c 0.3634,-1.052967 0.276567,-2.0273 -0.275515,-3.091449 C 18.76738,9.2834031 18.291928,8.9172994 16.988861,8.4879989 16.061695,8.1825406 15.758429,7.9753048 15.496763,7.4683787 15.234352,6.9600078 15.234681,6.9359469 15.541616,4.1932529 15.821335,1.6937604 15.866357,1.518441 16.334301,1.1065407 c 0.524441,-0.46163107 1.328976,-0.56485253 1.950074,-0.25019334 0.153139,0.0775829 1.117063,0.70490154 2.142052,1.39404054 2.00134,1.3455766 2.139605,1.4698623 2.318051,2.0836964 0.117672,0.404774 0.08652,0.7178668 -0.135409,1.3608448 -0.240525,0.6968655 -0.35896,1.6077287 -0.318355,2.4484186 0.08231,1.7041726 0.518463,2.9517843 1.584574,4.5326793 0.634781,0.941293 0.809379,1.328413 1.041101,2.308332 0.07493,0.316899 0.2982,0.728868 1.130725,2.086434 0.570542,0.930363 1.058713,1.71608 1.084825,1.746037 0.02611,0.02996 0.256835,0.03485 0.512717,0.01087 l 0.465241,-0.04359 0.211911,-0.851674 c 0.168999,-0.679209 0.199101,-0.88728 0.14865,-1.027503 -0.09027,-0.250887 0.109152,-0.609254 0.382314,-0.687037 0.262882,-0.07485 0.554566,0.04487 0.674538,0.27687 0.129637,0.250691 0.112726,0.394303 -0.07233,0.614229 -0.107036,0.127206 -0.214761,0.398068 -0.314446,0.790641 -0.0834,0.32843 -0.140885,0.607892 -0.12775,0.621027 0.05332,0.05332 0.854138,-0.84511 0.854138,-0.958241 0,-0.210438 0.298709,-0.45052 0.560534,-0.45052 0.504799,0 0.753287,0.599923 0.396337,0.956872 -0.09031,0.09031 -0.210231,0.164197 -0.266495,0.164197 -0.05626,0 -0.282853,0.182174 -0.503532,0.404831 -0.220677,0.222656 -0.372575,0.40483 -0.33755,0.40483 0.206615,0 1.115695,-0.320942 1.216958,-0.429635 0.257636,-0.27654 0.724789,-0.212121 0.898556,0.123906 0.113387,0.219268 0.113737,0.329233 0.0017,0.545823 -0.116689,0.225653 -0.357733,0.330191 -0.652622,0.283036 -0.250326,-0.04003 -1.166155,0.195175 -2.995523,0.769312 -0.717387,0.225149 -0.999133,0.284477 -1.370195,0.288528 -0.596322,0.0065 -0.812638,-0.103608 -1.599433,-0.814213 -0.323328,-0.29202 -0.597856,-0.520942 -0.61006,-0.508718 -0.0122,0.01222 -0.179042,0.335579 -0.37075,0.718561 -1.130135,2.25771 -3.168566,3.754955 -5.864779,4.307734 -0.824251,0.168989 -1.685466,0.25873 -2.482946,0.25873 -0.361026,0 -0.656411,0.01014 -0.656411,0.02252 0,0.01238 0.09024,0.215584 0.200539,0.451542 0.173075,0.37026 0.200632,0.497254 0.201212,0.927269 0.0012,0.877879 -0.374214,1.36761 -1.380692,1.801208 -0.300827,0.1296 -0.566443,0.253799 -0.590256,0.276 -0.02381,0.0222 -0.08965,0.468667 -0.146288,0.992147 -0.0952,0.879767 -0.09532,0.967943 -0.0016,1.165388 0.289694,0.610483 -0.485433,1.139509 -0.965788,0.659154 z" id="path1" />
</svg>
