<svg viewBox="0 0 28.780146000000002 28.73309716113051">
  <path style="fill:#000000" d="M 11.396498,28.720638 C 10.489498,28.555899 9.8849595,28.362835 9.1973625,28.018329 7.7448758,27.290592 6.6560454,26.140502 6.0505073,24.694427 L 5.853176,24.223184 4.8501413,24.197004 c -0.9759701,-0.02547 -1.0057321,-0.02952 -1.1030064,-0.149792 -0.09456,-0.11692 -0.099972,-0.23396 -0.099972,-2.162245 l 0,-2.038634 0.1285209,-0.128521 C 3.89943,19.594066 3.9304363,19.589291 4.6102417,19.589291 h 0.7060368 l 0.02996,-0.248711 c 0.1816482,-1.507955 0.6304102,-2.856146 1.3336103,-4.006495 0.1449229,-0.237076 0.285637,-0.464563 0.312698,-0.505527 0.040162,-0.06079 0.1124535,-0.03327 0.3934569,0.149811 0.1893402,0.12336 0.3355041,0.239344 0.3248086,0.257741 -0.010695,0.0184 -0.116341,0.192655 -0.2347677,0.387238 -0.5529065,0.908463 -0.953894,1.896798 -1.1704296,2.884819 -0.100351,0.457887 -0.1158989,0.679727 -0.1124683,1.604728 0.00811,2.186256 0.2908283,3.723064 0.8831614,4.800682 0.836694,1.522178 2.4351417,2.628429 4.2616691,2.949408 0.477996,0.084 1.488988,0.07069 1.955873,-0.02575 0.947122,-0.195633 1.42194,-0.444933 2.715403,-1.425704 0.529993,-0.401869 1.113049,-0.831263 1.295678,-0.954208 1.546615,-1.041175 3.485447,-1.170068 5.224566,-0.347328 0.609641,0.288409 0.968777,0.533913 1.733263,1.18485 0.476008,0.405308 0.645973,0.521155 0.747246,0.509317 0.09864,-0.01153 0.135125,-0.05029 0.147394,-0.156584 0.01338,-0.115965 -0.07962,-0.247233 -0.519372,-0.733045 -0.664967,-0.734616 -1.093328,-1.118243 -1.684601,-1.508674 -0.592443,-0.391204 -1.301732,-0.700299 -2.069763,-0.901965 -0.558417,-0.146627 -0.687832,-0.161115 -1.476029,-0.165244 -1.558951,-0.0082 -2.344159,0.257357 -4.620184,1.56234 -1.131328,0.64866 -1.815196,0.881645 -2.605547,0.887678 -1.661262,0.01268 -3.0167612,-1.313775 -3.3828015,-3.310322 -0.049191,-0.268312 -0.094724,-0.89725 -0.111218,-1.536257 l -0.027928,-1.081956 0.1354221,-0.135423 0.1354222,-0.135422 h 1.8667754 c 1.757479,0 1.864546,-0.0054 1.828699,-0.09163 -0.149359,-0.359434 -0.18257,-0.606262 -0.18257,-1.356877 v -0.80354 l -0.941935,0.471519 c -0.518065,0.259335 -0.949413,0.471519 -0.958551,0.471519 -0.03236,0 -0.369982,-0.731513 -0.347582,-0.753084 0.09907,-0.0954 2.598645,-1.28897 2.69937,-1.28897 0.07229,0 0.185339,0.06008 0.255493,0.135773 0.1247,0.134553 0.125971,0.147217 0.141491,1.410024 0.01465,1.191961 0.02263,1.283581 0.123617,1.418713 0.173463,0.232119 0.346316,0.333682 0.649459,0.381603 0.420308,0.06644 0.473053,0.155928 0.473053,0.802568 0,0.45225 0.01043,0.515555 0.076,0.461138 0.136946,-0.113655 0.342881,-0.594241 0.342881,-0.800173 0,-0.256304 0.184768,-0.458583 0.418883,-0.458583 0.102018,0 0.209348,0.04751 0.290362,0.128521 0.119601,0.119601 0.128521,0.165471 0.128521,0.660916 0,0.4594 0.01042,0.523747 0.076,0.469319 0.136946,-0.113655 0.342881,-0.594241 0.342881,-0.800173 0,-0.404947 0.432901,-0.606406 0.709245,-0.330062 0.119507,0.119507 0.128653,0.16633 0.130404,0.667595 l 0.0019,0.539074 0.129129,-0.157081 c 0.225772,-0.274646 0.298995,-0.547953 0.27844,-1.039292 -0.02002,-0.47843 -0.08488,-0.622615 -0.37897,-0.842446 -0.134383,-0.10045 -0.235519,-0.109777 -1.454507,-0.134137 -1.299049,-0.02596 -1.310923,-0.02722 -1.41006,-0.149791 -0.09265,-0.114548 -0.09998,-0.223135 -0.09998,-1.480863 0,-1.102951 -0.01509,-1.393365 -0.08054,-1.550004 -0.108488,-0.259647 -0.220126,-0.376416 -0.469247,-0.490813 -0.400063,-0.183709 -0.471167,-0.160878 -2.22863,0.715598 -0.897784,0.447741 -1.6385158,0.807064 -1.6460703,0.798496 -0.038647,-0.04383 -0.3403091,-0.673155 -0.3403091,-0.709949 0,-0.02357 0.7572524,-0.418853 1.6827834,-0.878408 l 1.682783,-0.835555 0.450902,-1.21e-4 c 0.387281,-1.05e-4 0.492744,0.02043 0.747453,0.145508 0.377241,0.185255 0.681573,0.489587 0.866828,0.866828 0.144658,0.294571 0.145746,0.30468 0.162939,1.51393 l 0.01731,1.217378 h 0.679128 l 0.679129,0 0.99021,-0.850856 0.99021,-0.850856 0.002,-1.243558 0.002,-1.243559 h 0.418883 0.418883 v 1.601729 1.601729 l 0.945551,1.10792 c 1.143521,1.339885 1.413122,1.551739 1.97592,1.552691 0.113111,1.92e-4 0.216823,0.04456 0.301072,0.128813 0.119601,0.119601 0.128521,0.165471 0.128521,0.660916 0,0.4594 0.01042,0.523747 0.076,0.469319 0.136945,-0.113655 0.342881,-0.594241 0.342881,-0.800173 0,-0.404947 0.4329,-0.606406 0.709245,-0.330062 0.119601,0.119601 0.128521,0.165471 0.128521,0.660916 0,0.4594 0.01042,0.523747 0.076,0.469319 0.136945,-0.113655 0.34288,-0.594241 0.34288,-0.800173 0,-0.404947 0.432901,-0.606406 0.709246,-0.330062 0.119506,0.119507 0.128652,0.16633 0.130403,0.667595 l 0.0019,0.539074 0.129129,-0.157081 c 0.225773,-0.274646 0.298995,-0.547953 0.27844,-1.039292 -0.02002,-0.478443 -0.08488,-0.622641 -0.378992,-0.842446 -0.135976,-0.101624 -0.233152,-0.109492 -1.656707,-0.134137 -0.903268,-0.01564 -1.532708,-0.04726 -1.56304,-0.07854 -0.02793,-0.0288 -0.453174,-0.55598 -0.944987,-1.171514 L 19.983599,16.382317 V 14.63474 12.887164 l 0.417111,0 0.417112,0 0.01486,0.558675 0.01486,0.558675 1.299452,-1.121549 1.299451,-1.121549 2.200547,-3.000549 C 27.403694,6.3655256 27.841358,5.7371443 27.816881,5.6454249 27.730797,5.3228556 27.742021,5.314635 26.294404,6.7605307 l -1.388732,1.38708 -0.300714,-0.3007146 -0.300715,-0.3007147 1.478724,-1.4794068 c 0.813298,-0.8136737 1.478723,-1.496926 1.478723,-1.5183384 0,-0.021412 -0.928095,-0.038932 -2.062434,-0.038932 -1.889168,0 -2.071287,0.0077 -2.167821,0.091631 -0.05796,0.050397 -0.676747,0.7278092 -1.375076,1.5053607 -1.304229,1.4521886 -1.61985,1.7647718 -2.134563,2.1140161 -0.646217,0.438473 -1.138378,0.6359504 -2.418018,0.9702201 -2.434452,0.6359319 -4.514258,1.6147639 -6.361785,2.9940859 -0.73753,0.550623 -1.5765683,1.304431 -2.0539978,1.84535 L 8.3129446,14.455093 7.9952918,14.189669 7.6776389,13.924244 7.881653,13.680596 c 0.3419478,-0.408379 1.4285131,-1.438045 1.9871602,-1.883101 0.9656738,-0.76932 2.1794068,-1.523333 3.3748628,-2.0965805 1.193058,-0.5720973 2.318472,-0.9672965 4.112608,-1.4441779 0.796245,-0.2116421 1.407838,-0.4938795 1.929583,-0.8904625 0.217787,-0.1655412 0.919845,-0.8918953 1.7973,-1.8594992 0.949731,-1.0473061 1.511208,-1.6254635 1.649351,-1.6983505 0.202697,-0.106947 0.284885,-0.1109927 2.552206,-0.1256316 1.609114,-0.010389 2.375949,0.00263 2.448731,0.041585 0.06157,0.032949 0.305039,0.454394 0.581081,1.0058315 0.362379,0.723911 0.468404,0.9826814 0.446828,1.0905593 -0.01556,0.077791 -1.08036,1.5758527 -2.366226,3.3290251 L 24.0572,12.33738 l -0.780152,0.672517 -0.780151,0.672517 v 0.995225 0.995225 l 0.922854,1.107358 0.922855,1.107357 1.18465,0.02698 c 1.164624,0.02653 1.189268,0.0294 1.457792,0.170166 0.505324,0.264896 0.855172,0.744052 0.935793,1.281673 l 0.03343,0.22289 h 0.284416 c 0.23216,0 0.308031,0.02361 0.412938,0.128521 l 0.128521,0.128521 v 2.046815 2.046814 l -0.128521,0.128521 -0.128521,0.128521 h -1.756452 -1.756453 v -0.418883 -0.418883 h 1.466091 1.46609 v -0.628324 -0.628325 h -0.837766 -0.837766 v -0.418883 -0.418883 h 0.837766 0.837766 V 20.84594 20.427057 H 27.08249 26.222604 l -0.06241,0.196352 c -0.08671,0.272797 -0.33966,0.661033 -0.552386,0.847809 -0.15401,0.135222 -0.178732,0.18974 -0.178732,0.39415 v 0.237221 h -3.560505 -3.560505 v -0.418883 -0.418883 h 1.675532 1.675532 V 20.84594 20.427057 h -1.697652 -1.697651 l -0.06241,0.196352 c -0.07928,0.249439 -0.317564,0.629683 -0.506437,0.808161 -0.283288,0.267694 -0.922893,0.671019 -1.064125,0.671019 -0.170178,0 -0.417205,-0.21619 -0.417205,-0.365125 0,-0.09682 -0.03746,-0.08319 -0.352873,0.128401 -0.194372,0.130394 -0.414368,0.236724 -0.489778,0.236724 -0.167498,0 -0.413998,-0.2174 -0.413998,-0.365125 0,-0.09682 -0.03746,-0.08319 -0.352873,0.128401 -0.400513,0.268683 -0.566799,0.292222 -0.765229,0.108323 -0.136686,-0.126676 -0.138547,-0.137928 -0.138547,-0.837766 V 20.427057 H 11.59786 9.4953656 l 0.033559,0.824676 c 0.033316,0.818703 0.1480026,1.51363 0.3162593,1.916325 l 0.07988,0.19118 h 2.9536589 2.953659 l 0.392278,-0.181244 c 0.501516,-0.231715 1.088043,-0.424061 1.716884,-0.563037 0.726903,-0.160648 2.066705,-0.160126 2.811145,0.0011 1.317212,0.285263 2.526093,0.882374 3.522331,1.73981 0.43486,0.374272 1.52223,1.577879 1.649598,1.825934 0.13579,0.26446 0.09322,0.765244 -0.08839,1.039663 -0.180269,0.272406 -0.505462,0.431394 -0.881839,0.431135 -0.355958,-2.45e-4 -0.463447,-0.06411 -1.264757,-0.75142 -0.764205,-0.655487 -1.344197,-1.013846 -1.98414,-1.225939 -1.065581,-0.35316 -1.932247,-0.363504 -2.931212,-0.03499 -0.515131,0.169405 -0.968415,0.452407 -2.077905,1.297313 -1.153181,0.878178 -1.559476,1.144105 -2.083542,1.363717 -0.775922,0.325152 -1.203914,0.408335 -2.195312,0.426672 -0.489569,0.0091 -0.949031,0.0058 -1.021027,-0.0073 z m 1.353044,-3.818446 c 0.193978,-0.04412 0.63453,-0.218955 0.979003,-0.388523 l 0.626314,-0.308307 -1.937334,-0.0019 -1.937333,-0.0019 0.229112,0.201214 c 0.578891,0.508403 1.263838,0.676097 2.040238,0.499509 z M 5.6158257,23.267607 c -0.084213,-0.274721 -0.1914815,-1.105348 -0.247717,-1.91818 l -0.063814,-0.92237 H 4.894612 4.4849291 v 1.466091 1.46609 h 0.5794925 c 0.5276911,0 0.5769817,-0.0082 0.5514041,-0.09163 z m 14.6228713,-3.77989 c -0.134702,-0.190462 -1.851973,-2.194222 -1.883962,-2.198259 -0.01753,-0.0022 -0.238227,0.176873 -0.490437,0.397967 l -0.458564,0.40199 0.150094,0.107077 c 0.384446,0.274262 0.66336,0.720823 0.730705,1.169909 l 0.03342,0.22289 h 0.995289 c 0.974791,0 0.993809,-0.0021 0.923451,-0.101574 z m 6.845673,-0.0686 c -0.07074,-0.361161 -0.371995,-0.617984 -0.769737,-0.656201 -0.253955,-0.0244 -0.270973,-0.01904 -0.23078,0.07276 0.02387,0.05451 0.08069,0.246248 0.126282,0.426087 l 0.08289,0.326981 0.412337,2.72e-4 0.412338,2.71e-4 z M 22.47199,16.940781 21.659131,15.967803 V 15.18204 14.396276 l -0.414988,0.358102 -0.414989,0.358102 -0.0039,0.490373 -0.0039,0.490373 0.719955,0.907657 0.719955,0.907657 0.511787,0.0026 0.511786,0.0026 z m -12.122699,4.742925 v -0.418883 h 1.256649 1.256648 v 0.418883 0.418883 H 11.60594 10.349291 Z m 4.19317,-8.368272 c -0.113197,-0.192351 -0.189934,-0.36483 -0.170527,-0.383287 0.01941,-0.01846 1.336935,-0.776669 2.927839,-1.684919 l 2.892555,-1.6513616 0.205813,0.3497295 c 0.113197,0.1923511 0.189934,0.3648301 0.170527,0.3832861 -0.01941,0.01846 -1.336935,0.77667 -2.927839,1.684919 l -2.892554,1.651363 z M 21.720896,9.4510101 C 21.159336,9.1646997 21.089169,8.4151046 21.588293,8.0344046 22.088598,7.652803 22.830666,7.97946 22.902043,8.6127153 22.97243,9.2371885 22.273899,9.7329571 21.720896,9.4510101 Z M 23.488043,6.8788113 C 23.250471,6.7584789 23.180103,6.6881112 23.059771,6.4505394 22.834985,6.0067456 22.895529,5.5769626 23.229942,5.2425497 c 0.334413,-0.3344128 0.764196,-0.3949569 1.207989,-0.1701712 0.237572,0.1203324 0.30794,0.1907002 0.428272,0.428272 0.224786,0.4437938 0.164242,0.8735768 -0.170171,1.2079896 -0.334413,0.3344129 -0.764196,0.394957 -1.207989,0.1701712 z m 0.629938,-0.7698001 c 0.139093,-0.1675968 -0.0652,-0.4250495 -0.246625,-0.3107976 -0.11633,0.07326 -0.144762,0.2127175 -0.06336,0.3107976 0.08088,0.09745 0.229111,0.09745 0.309988,0 z" id="path1" />
</svg>
